<svg width="1189" height="332" viewBox="0 0 1189 332" fill="none" xmlns="http://www.w3.org/2000/svg">
<path d="M387.875 151.555H444.711L466.625 246.242L491.117 151.555H534.125L493.695 278H429.594L387.875 151.555Z" fill="#832613"/>
<path d="M315.286 294.891C323.074 295.068 330.716 294.752 337.826 294.17C339.815 293.452 341.761 292.607 343.651 291.639C346.34 291.475 348.969 291.285 351.5 291.07C350.131 291.867 348.714 292.588 347.273 293.259C357.111 292.151 366.88 290.461 376.535 288.198H376.462C437.505 272.509 443.077 157.564 478.201 166.104L477.632 165.914C477.632 165.914 455.831 157.058 432.661 159.411L433.387 159.601C396.761 155.805 391.057 297.51 315.201 294.98L315.286 294.891ZM384.989 284.769C383.269 285.073 381.452 285.389 379.551 285.68C381.773 284.302 383.917 282.79 385.97 281.151C387.956 280.796 389.834 280.417 391.541 280.05C389.442 281.747 387.254 283.323 384.989 284.769ZM393.685 278.266C392.026 278.582 390.245 278.886 388.368 279.19C389.918 277.848 391.444 276.444 392.898 274.976C394.884 274.609 396.725 274.255 398.409 273.901C396.907 275.394 395.32 276.862 393.685 278.253V278.266ZM400.056 272.218C398.384 272.522 396.604 272.825 394.715 273.116C395.926 271.851 397.137 270.46 398.348 269.055C400.334 268.714 402.175 268.359 403.835 268.03C402.616 269.464 401.356 270.856 400.056 272.206V272.218ZM405.24 266.386L399.886 267.259C400.928 265.993 401.957 264.728 402.963 263.336C404.937 263.007 406.778 262.678 408.461 262.362C407.396 263.716 406.33 265.057 405.24 266.373V266.386ZM409.697 260.679C408.013 260.958 406.221 261.223 404.307 261.502C405.211 260.253 406.108 258.988 406.996 257.706C408.958 257.415 410.799 257.111 412.483 256.82C411.586 258.098 410.654 259.389 409.697 260.667V260.679ZM413.682 255.036C411.974 255.289 410.169 255.543 408.268 255.77C409.079 254.505 409.879 253.303 410.69 252.038C412.652 251.772 414.505 251.481 416.201 251.215C415.353 252.506 414.517 253.771 413.682 255.024V255.036ZM417.315 249.444C415.607 249.659 413.791 249.874 411.877 250.077C412.628 248.875 413.355 247.648 414.069 246.408C416.019 246.193 417.86 245.939 419.568 245.712C418.805 246.952 418.054 248.192 417.291 249.432L417.315 249.444ZM420.682 243.814C418.962 244.016 417.146 244.206 415.232 244.371C415.922 243.181 416.576 241.979 417.242 240.777C419.192 240.575 421.021 240.373 422.741 240.157L420.682 243.814ZM423.819 238.184C422.099 238.361 420.283 238.525 418.381 238.652C419.023 237.475 419.592 236.286 420.258 235.097C422.196 234.945 424.025 234.755 425.769 234.578C425.103 235.78 424.461 236.969 423.795 238.171L423.819 238.184ZM457.223 167.685L462.649 168.242C461.56 169.2 460.536 170.235 459.585 171.342C457.89 171.152 456.085 170.975 454.208 170.811C455.143 169.702 456.142 168.655 457.199 167.673L457.223 167.685ZM451.47 174.265L456.848 174.707C456.097 175.732 455.334 176.808 454.583 177.946L449.23 177.516C449.944 176.365 450.683 175.277 451.41 174.252L451.47 174.265ZM447.037 181.021C448.927 181.135 450.671 181.261 452.439 181.35C451.801 182.413 451.159 183.513 450.513 184.652L445.124 184.31C445.741 183.172 446.383 182.071 447.013 181.021H447.037ZM443.222 187.815L448.636 188.056C448.055 189.131 447.425 190.244 446.88 191.383L441.49 191.143C442.035 190.004 442.617 188.891 443.198 187.802L443.222 187.815ZM439.734 194.622L445.172 194.761C444.627 195.862 444.07 196.975 443.525 198.127L438.099 197.975C438.632 196.824 439.165 195.71 439.71 194.609L439.734 194.622ZM436.452 201.416H441.902C441.369 202.542 440.824 203.656 440.291 204.807H434.853C435.374 203.656 435.907 202.53 436.427 201.404L436.452 201.416ZM433.254 208.185C435.192 208.185 437.009 208.185 438.741 208.122C438.196 209.248 437.663 210.399 437.118 211.538C435.386 211.538 433.581 211.538 431.668 211.614L433.254 208.185ZM430.105 214.942L435.58 214.764C435.047 215.916 434.49 217.067 433.92 218.231L428.482 218.396L430.105 214.942ZM426.92 221.685L432.406 221.381L430.699 224.886C428.967 224.987 427.15 225.076 425.236 225.152C425.781 224.038 426.338 222.773 426.896 221.673L426.92 221.685ZM429.16 228.011C428.563 229.201 427.957 230.39 427.344 231.579C425.612 231.706 423.795 231.832 421.893 231.946C422.487 230.769 423.105 229.605 423.662 228.429C425.575 228.252 427.404 228.125 429.136 227.961L429.16 228.011ZM425.091 165.206L431.038 165.572C429.681 166.494 428.415 167.553 427.259 168.736L421.469 168.407C422.562 167.201 423.767 166.111 425.067 165.155L425.091 165.206ZM418.333 172.114L424.037 172.443C423.262 173.455 422.475 174.556 421.712 175.72C419.871 175.593 417.969 175.492 416.031 175.391C416.77 174.176 417.497 173.088 418.308 172.063L418.333 172.114ZM413.73 179.161L419.374 179.465C418.76 180.527 418.143 181.628 417.521 182.767L411.889 182.463C412.483 181.274 413.088 180.173 413.706 179.11L413.73 179.161ZM409.927 186.246L415.559 186.537C415.002 187.625 414.457 188.726 413.912 189.852L408.304 189.561C408.813 188.384 409.358 187.271 409.903 186.196L409.927 186.246ZM406.548 193.344L412.156 193.622C411.647 194.711 411.138 195.837 410.642 196.963C408.813 196.861 406.935 196.786 405.034 196.672C405.518 195.495 406.015 194.382 406.524 193.294L406.548 193.344ZM403.387 200.467L408.982 200.72L407.529 204.061L401.933 203.795C402.393 202.618 402.878 201.517 403.362 200.417L403.387 200.467ZM400.298 207.591L405.906 207.818L404.489 211.171C402.66 211.095 400.855 211.019 398.893 210.918L400.298 207.591ZM397.294 214.714L402.914 214.916C402.442 216.03 401.957 217.143 401.485 218.282L395.865 218.054L397.294 214.714ZM394.254 221.824C396.168 221.824 398.045 221.964 399.898 222.001C399.402 223.115 398.917 224.241 398.433 225.354L392.801 225.165C393.273 224.038 393.782 222.887 394.254 221.774V221.824ZM391.142 228.922L396.798 229.074C396.301 230.187 395.793 231.314 395.272 232.44C393.431 232.44 391.541 232.351 389.628 232.275C390.136 231.111 390.645 229.998 391.142 228.872V228.922ZM387.908 236.007C389.834 236.071 391.735 236.109 393.6 236.121C393.067 237.26 392.534 238.386 391.989 239.512C390.124 239.512 388.235 239.436 386.309 239.373C386.854 238.209 387.387 237.083 387.908 235.957V236.007ZM384.916 242.232C386.866 242.232 388.78 242.232 390.657 242.232C390.1 243.371 389.543 244.51 388.962 245.636C387.08 245.636 385.167 245.636 383.221 245.636C383.79 244.434 384.359 243.295 384.916 242.182V242.232ZM381.755 248.394C383.741 248.394 385.691 248.394 387.581 248.318C386.975 249.469 386.37 250.621 385.728 251.76C383.826 251.76 381.9 251.76 379.914 251.76C380.544 250.608 381.162 249.469 381.755 248.343V248.394ZM378.376 254.404C380.399 254.404 382.373 254.315 384.298 254.239C383.632 255.416 382.966 256.58 382.276 257.719C380.35 257.782 378.376 257.82 376.353 257.845C377.044 256.757 377.722 255.669 378.376 254.404ZM374.742 260.515C376.801 260.452 378.812 260.363 380.798 260.262C380.071 261.451 379.321 262.615 378.558 263.766C376.583 263.842 374.573 263.918 372.502 263.969C373.216 262.881 373.967 261.729 374.706 260.565L374.742 260.515ZM370.673 266.588C372.78 266.499 374.827 266.385 376.838 266.259C376.002 267.524 375.142 268.663 374.27 269.814C372.259 269.941 370.188 270.029 368.081 270.093C368.929 269.005 369.789 267.841 370.636 266.639L370.673 266.588ZM366.046 272.699C368.214 272.572 370.322 272.433 372.381 272.281C371.399 273.547 370.394 274.723 369.377 275.9C367.294 276.039 365.162 276.153 362.982 276.267C363.987 275.154 365.004 273.977 366.01 272.75L366.046 272.699ZM360.559 278.848C362.824 278.709 365.029 278.544 367.148 278.367C365.937 279.632 364.726 280.898 363.515 282.049C361.347 282.226 359.118 282.353 356.829 282.479C358.04 281.366 359.3 280.151 360.572 278.899L360.559 278.848ZM353.656 285.111C356.078 284.972 358.391 284.782 360.656 284.567C359.073 285.92 357.423 287.187 355.715 288.362C353.377 288.54 350.979 288.679 348.52 288.805C350.282 287.688 351.984 286.472 353.619 285.161L353.656 285.111Z" fill="#1A1A1A"/>
<path opacity="0.3" d="M317.625 295.012H315.201C316.001 294.936 316.813 295.024 317.625 295.012ZM343.545 291.696C346.235 291.532 348.865 291.342 351.398 291.127C350.028 291.924 348.598 292.645 347.18 293.316C348.744 293.139 350.258 292.936 351.749 292.747C361.443 291.481 369.114 289.887 373.198 288.95C375.076 288.533 376.203 288.254 376.409 288.203C437.484 272.524 443.059 157.555 478.201 166.097L477.631 165.907C477.631 165.907 455.819 157.048 432.637 159.415L433.364 159.592C397.119 155.796 391.157 294.442 317.564 294.999C324.52 295.062 331.33 294.759 337.692 294.24C339.689 293.513 341.644 292.664 343.545 291.696ZM384.94 284.812C383.22 285.116 381.402 285.432 379.499 285.723C381.723 284.345 383.868 282.832 385.922 281.193C387.909 280.838 389.788 280.459 391.496 280.092C389.395 281.789 387.207 283.365 384.94 284.812ZM393.641 278.307C391.981 278.624 390.2 278.927 388.321 279.231C389.872 277.89 391.399 276.485 392.853 275.017C394.841 274.65 396.683 274.296 398.367 273.941C396.865 275.435 395.277 276.903 393.641 278.295V278.307ZM400.015 272.258C398.343 272.562 396.562 272.866 394.671 273.157C395.883 271.891 397.095 270.499 398.307 269.095C400.294 268.753 402.136 268.399 403.796 268.07C402.576 269.504 401.316 270.896 400.015 272.246V272.258ZM405.202 266.424L399.846 267.298C400.888 266.032 401.918 264.767 402.924 263.375C404.899 263.046 406.741 262.717 408.425 262.4C407.359 263.754 406.292 265.096 405.202 266.412V266.424ZM409.661 260.717C407.977 260.996 406.183 261.261 404.269 261.54C405.173 260.291 406.07 259.026 406.959 257.743C408.922 257.452 410.764 257.148 412.448 256.857C411.552 258.136 410.619 259.426 409.661 260.704V260.717ZM413.648 255.073C411.939 255.326 410.134 255.579 408.231 255.807C409.043 254.542 409.843 253.339 410.655 252.074C412.618 251.808 414.472 251.517 416.169 251.251C415.32 252.542 414.484 253.808 413.648 255.06V255.073ZM417.283 249.48C415.575 249.695 413.757 249.91 411.842 250.112C412.594 248.91 413.321 247.683 414.036 246.442C415.987 246.227 417.829 245.974 419.537 245.746C418.774 246.987 418.023 248.227 417.259 249.467L417.283 249.48ZM420.652 243.848C418.932 244.051 417.114 244.24 415.199 244.405C415.89 243.215 416.544 242.013 417.211 240.811C419.162 240.609 420.992 240.406 422.712 240.191L420.652 243.848ZM423.791 238.217C422.07 238.394 420.252 238.558 418.35 238.685C418.992 237.508 419.562 236.319 420.228 235.129C422.167 234.977 423.997 234.787 425.742 234.61C425.075 235.812 424.433 237.002 423.767 238.204L423.791 238.217ZM427.317 231.573C425.584 231.699 423.767 231.826 421.864 231.94C422.458 230.763 423.076 229.599 423.633 228.422C425.572 228.295 427.402 228.169 429.135 228.004C428.521 229.185 427.907 230.371 427.293 231.56L427.317 231.573ZM430.674 224.916C428.941 225.018 427.123 225.106 425.209 225.182C425.778 224.031 426.336 222.866 426.893 221.715L432.383 221.411L430.674 224.916ZM433.897 218.26L428.456 218.425L430.08 214.97L435.557 214.793C435 215.932 434.431 217.083 433.873 218.247L433.897 218.26ZM437.096 211.566C435.364 211.566 433.558 211.566 431.643 211.642L433.219 208.199C435.158 208.199 436.975 208.199 438.708 208.136C438.151 209.262 437.618 210.414 437.072 211.553L437.096 211.566ZM440.271 204.871H434.83C435.376 203.732 435.909 202.593 436.43 201.48H441.883C441.326 202.555 440.78 203.707 440.247 204.859L440.271 204.871ZM443.507 198.151L438.078 198C438.635 196.861 439.169 195.747 439.714 194.646L445.155 194.785C444.585 195.874 444.028 196.987 443.483 198.139L443.507 198.151ZM446.864 191.406L441.471 191.166C442.041 190.04 442.683 188.926 443.204 187.838L448.621 188.078C448.015 189.141 447.433 190.255 446.839 191.394L446.864 191.406ZM450.499 184.674L445.107 184.332C445.749 183.206 446.391 182.105 447.021 181.042C448.912 181.156 450.657 181.283 452.426 181.371C451.739 182.426 451.089 183.522 450.475 184.661L450.499 184.674ZM454.571 177.967L449.215 177.537C449.954 176.398 450.693 175.309 451.456 174.284L456.837 174.727C456.061 175.74 455.298 176.815 454.546 177.954L454.571 177.967ZM459.575 171.361C457.879 171.171 456.073 170.994 454.195 170.83C455.139 169.725 456.147 168.681 457.212 167.704L462.641 168.261C461.544 169.213 460.511 170.245 459.551 171.348L459.575 171.361ZM425.063 165.186L431.013 165.553C429.656 166.474 428.39 167.534 427.232 168.716L421.44 168.387C422.535 167.194 423.741 166.118 425.039 165.173L425.063 165.186ZM418.301 172.095L424.009 172.424C423.233 173.436 422.446 174.537 421.682 175.702C419.84 175.575 417.938 175.474 415.999 175.373C416.738 174.196 417.465 173.107 418.277 172.082L418.301 172.095ZM413.697 179.144L419.344 179.448C418.73 180.511 418.112 181.612 417.489 182.75L411.855 182.447C412.448 181.295 413.054 180.194 413.672 179.131L413.697 179.144ZM409.891 186.231L415.526 186.522C414.969 187.61 414.424 188.711 413.878 189.837L408.268 189.546C408.777 188.407 409.322 187.294 409.867 186.218L409.891 186.231ZM406.511 193.33L412.121 193.608C411.612 194.697 411.103 195.823 410.606 196.949C408.777 196.848 406.898 196.772 404.996 196.658C405.48 195.519 405.977 194.406 406.486 193.317L406.511 193.33ZM403.348 200.455L408.946 200.708L407.492 204.049L401.894 203.783C402.354 202.644 402.839 201.543 403.323 200.442L403.348 200.455ZM400.258 207.617L405.868 207.845L404.45 211.199C402.621 211.123 400.815 211.047 398.852 210.946L400.258 207.617ZM397.252 214.742L402.875 214.944C402.402 216.058 401.918 217.172 401.445 218.311L395.822 218.083L397.252 214.742ZM394.211 221.854C396.125 221.854 398.004 221.993 399.858 222.031C399.361 223.145 398.876 224.271 398.391 225.385L392.757 225.195C393.229 224.069 393.738 222.917 394.211 221.803V221.854ZM391.096 228.953L396.755 229.105C396.259 230.219 395.75 231.345 395.229 232.471C393.387 232.471 391.496 232.383 389.582 232.307C390.091 231.143 390.6 230.029 391.096 228.903V228.953ZM387.861 236.04C389.788 236.103 391.69 236.141 393.556 236.154C393.023 237.293 392.49 238.419 391.945 239.546C390.078 239.546 388.188 239.47 386.261 239.406C386.807 238.242 387.34 237.116 387.861 235.99V236.04ZM384.868 242.266C386.819 242.266 388.733 242.266 390.612 242.266C390.054 243.405 389.497 244.544 388.915 245.67C387.033 245.67 385.118 245.67 383.171 245.67C383.741 244.468 384.31 243.329 384.868 242.216V242.266ZM381.705 248.429C383.692 248.429 385.643 248.429 387.534 248.353C386.928 249.505 386.322 250.657 385.68 251.795C383.777 251.795 381.85 251.795 379.863 251.795C380.493 250.644 381.111 249.505 381.705 248.379V248.429ZM378.324 254.44C380.348 254.44 382.323 254.352 384.25 254.276C383.583 255.453 382.917 256.617 382.226 257.756C380.299 257.819 378.324 257.857 376.3 257.882C376.991 256.794 377.67 255.706 378.324 254.44ZM374.689 260.553C376.749 260.489 378.76 260.401 380.748 260.3C380.02 261.489 379.269 262.653 378.506 263.805C376.53 263.881 374.519 263.957 372.447 264.007C373.162 262.919 373.913 261.767 374.652 260.603L374.689 260.553ZM370.617 266.627C372.725 266.538 374.773 266.424 376.785 266.298C375.949 267.563 375.088 268.702 374.216 269.854C372.204 269.98 370.132 270.069 368.024 270.132C368.872 269.044 369.732 267.88 370.58 266.678L370.617 266.627ZM365.988 272.739C368.157 272.613 370.265 272.473 372.325 272.322C371.344 273.587 370.338 274.764 369.32 275.941C367.236 276.08 365.103 276.194 362.922 276.308C363.928 275.194 364.946 274.017 365.951 272.79L365.988 272.739ZM360.498 278.89C362.764 278.75 364.97 278.586 367.09 278.409C365.879 279.674 364.667 280.94 363.455 282.091C361.286 282.268 359.056 282.395 356.766 282.521C357.978 281.408 359.238 280.193 360.51 278.94L360.498 278.89ZM353.591 285.154C356.015 285.014 358.329 284.825 360.595 284.609C359.011 285.963 357.36 287.23 355.651 288.406C353.312 288.583 350.913 288.722 348.453 288.849C350.215 287.732 351.919 286.515 353.555 285.204L353.591 285.154Z" fill="#BD8C34"/>
<g opacity="0.3">
<path d="M434.016 202.74C435.421 199.691 436.789 196.871 438.109 194.252C430.044 193.746 422.209 193.481 415.028 193.354C413.817 195.884 412.606 198.414 411.335 201.02C409.639 204.549 407.835 208.736 405.873 213.353C414.241 213.505 422.076 213.555 429.015 213.543C430.759 209.824 432.43 206.206 434.016 202.74Z" fill="black"/>
<path d="M415.258 240.676C408.646 241.068 401.344 241.308 393.46 241.296C390.457 247.456 387.103 253.73 383.349 259.878C390.723 259.625 397.735 259.233 404.129 258.765C407.992 253.034 411.734 246.925 415.258 240.676Z" fill="black"/>
<path d="M454.179 169.143C446.76 168.348 439.305 167.985 431.848 168.055C426.121 172.988 421.652 180.3 417.317 188.863C424.583 189.015 432.418 189.319 440.458 189.863C444.271 182.439 448.874 175.488 454.179 169.143Z" fill="black"/>
<path d="M426.859 218.071C419.92 218.071 412.194 218.071 403.972 217.856C401.489 223.713 398.74 230.126 395.616 236.767C403.681 236.767 411.141 236.426 417.789 235.983C421.01 230 424.038 223.953 426.859 218.071Z" fill="black"/>
<path d="M458.272 164.969C459.133 164.161 460.075 163.453 461.081 162.856C451.975 160.554 444.879 161.022 439.018 163.526C446.223 163.704 452.665 164.247 458.272 164.969Z" fill="black"/>
<path d="M352.045 292.716C355.972 290.584 359.68 288.041 363.114 285.126C369.835 284.86 376.01 284.367 381.654 283.734C379.076 285.719 376.342 287.471 373.48 288.971C369.399 289.844 361.733 291.413 352.045 292.716Z" fill="black"/>
<path d="M400.726 263.533C394.405 263.963 387.563 264.305 380.43 264.507C378.505 267.455 376.495 270.351 374.376 273.172C372.499 275.674 370.477 278.052 368.321 280.294C375.587 279.838 382.174 279.117 388.06 278.27C392.671 273.739 396.908 268.809 400.726 263.533Z" fill="black"/>
</g>
<path d="M446.524 159.462C448.262 159.565 449.971 159.96 451.579 160.629C475.486 170.32 487.544 212.067 471.632 273.966C461.622 312.904 443 325.722 443 325.722C466.852 334.609 482.093 331.129 482.093 331.129C482.093 331.129 500.737 318.256 510.725 279.317C526.626 217.418 514.579 175.672 490.671 165.992L489.57 165.573C489.57 165.573 486.267 164.329 480.992 162.931C472.656 160.728 459.408 158.074 446.535 159.319L446.524 159.462ZM480.353 197.828C481.653 197.883 482.93 197.971 484.196 198.059C484.417 199.05 484.615 200.063 484.791 201.076L480.937 200.812C480.761 199.821 480.562 198.808 480.353 197.839V197.828ZM481.939 207.739C481.829 206.726 481.697 205.735 481.564 204.754L485.441 205.074C485.584 206.065 485.716 207.067 485.826 208.08C484.538 207.915 483.238 207.816 481.939 207.717V207.739ZM482.236 235.445C482.324 234.454 482.39 233.474 482.445 232.494L486.355 233.001C486.3 233.97 486.234 234.961 486.146 235.952L482.236 235.445ZM485.793 239.938C485.705 240.918 485.606 241.887 485.485 242.878L481.575 242.35C481.697 241.359 481.796 240.379 481.884 239.41L485.793 239.938ZM482.633 228.53C482.633 227.527 482.699 226.536 482.721 225.545C483.976 225.699 485.298 225.854 486.619 226.03C486.619 227.01 486.619 228.001 486.542 229.003C485.22 228.838 483.921 228.673 482.644 228.53H482.633ZM482.732 221.592C482.732 220.579 482.732 219.588 482.677 218.597C483.965 218.729 485.265 218.883 486.586 219.037C486.586 220.017 486.586 221.008 486.641 222.032C485.342 221.878 484.031 221.724 482.743 221.592H482.732ZM482.512 214.654C482.512 213.641 482.39 212.639 482.313 211.659C483.602 211.78 484.901 211.901 486.212 212.044C486.289 213.036 486.355 214.038 486.421 215.051L482.512 214.654ZM452.107 325.877C451.006 325.568 449.905 325.238 448.726 324.874C449.398 324.291 450.235 323.509 451.193 322.529C452.382 322.881 453.528 323.212 454.662 323.52C453.605 324.5 452.768 325.293 452.118 325.832L452.107 325.877ZM456.633 321.472C455.532 321.163 454.31 320.833 453.12 320.481C453.792 319.732 454.486 318.906 455.224 317.992C456.435 318.344 457.635 318.653 458.78 318.961C458.01 319.809 457.316 320.646 456.644 321.406L456.633 321.472ZM460.498 316.803C459.309 316.505 458.109 316.197 456.886 315.856C457.492 315.052 458.109 314.193 458.747 313.279C459.981 313.609 461.192 313.917 462.381 314.204C461.743 315.063 461.115 315.922 460.509 316.736L460.498 316.803ZM463.868 311.99C462.679 311.704 461.456 311.396 460.212 311.065C460.763 310.228 461.313 309.358 461.864 308.433C463.119 308.753 464.353 309.061 465.553 309.336C465.002 310.195 464.441 311.087 463.879 311.924L463.868 311.99ZM466.896 307.024C465.685 306.749 464.452 306.451 463.196 306.121C463.681 305.262 464.176 304.37 464.661 303.434C465.927 303.764 467.172 304.051 468.383 304.337C467.92 305.229 467.392 306.121 466.896 307.024ZM469.583 302.013C468.35 301.749 467.117 301.452 465.839 301.143C466.28 300.251 466.709 299.348 467.15 298.401C468.427 298.721 469.682 299.018 470.905 299.293C470.464 300.196 470.024 301.11 469.583 301.98V302.013ZM471.973 296.937C470.74 296.661 469.484 296.364 468.218 296.056C468.603 295.164 469 294.239 469.385 293.292C470.651 293.611 471.918 293.908 473.162 294.173C472.766 295.087 472.325 296.012 471.973 296.904V296.937ZM474.616 290.517C473.338 290.252 472.072 289.977 470.795 289.691C471.147 288.777 471.477 287.852 471.819 286.883C473.085 287.169 474.363 287.444 475.629 287.698C475.299 288.623 474.946 289.559 474.616 290.506V290.517ZM476.895 283.909C475.607 283.667 474.319 283.425 473.052 283.161C473.349 282.236 473.636 281.289 473.933 280.319C475.199 280.584 476.488 280.815 477.776 281.057C477.49 282.026 477.204 282.973 476.895 283.898V283.909ZM479.45 275.1C479.263 275.838 479.076 276.553 478.878 277.302C477.556 277.071 476.268 276.851 475.001 276.608C475.188 275.937 475.376 275.265 475.541 274.571C475.618 274.296 475.695 274.01 475.761 273.734C477.027 273.966 478.316 274.197 479.626 274.417C479.582 274.582 479.516 274.824 479.45 275.089V275.1ZM480.551 270.486L476.664 269.858C476.906 268.889 477.127 267.92 477.336 266.962L481.234 267.59C481.058 268.481 480.827 269.473 480.584 270.442L480.551 270.486ZM482.093 263.647C480.75 263.46 479.45 263.251 478.184 263.064C478.404 262.083 478.591 261.114 478.778 260.156L482.688 260.729C482.534 261.665 482.335 262.634 482.126 263.603L482.093 263.647ZM483.437 256.765L479.527 256.192C479.714 255.212 479.88 254.243 480.034 253.274L483.932 253.835C483.811 254.771 483.646 255.741 483.47 256.721L483.437 256.765ZM484.538 249.827L480.628 249.287C480.772 248.307 480.904 247.327 481.047 246.358L484.956 246.898C484.89 247.823 484.747 248.803 484.604 249.761L484.538 249.827ZM480.375 330.744C479.681 330.744 478.955 330.744 478.173 330.645C479.337 329.761 480.44 328.801 481.476 327.771C482.258 327.771 482.996 327.771 483.679 327.771C482.663 328.814 481.581 329.793 480.441 330.7L480.375 330.744ZM485.54 325.877L483.392 325.799C484.196 324.952 485.055 323.982 485.947 322.881C486.729 322.881 487.445 322.881 488.15 322.881C487.258 324.027 486.388 324.996 485.54 325.877ZM489.603 321.042L487.5 320.954C488.194 320.051 488.91 319.082 489.636 318.036H491.762C491.046 319.137 490.341 320.117 489.647 321.042H489.603ZM493.017 316.208L490.947 316.109C491.563 315.191 492.18 314.222 492.797 313.202L494.867 313.268C494.294 314.303 493.667 315.283 493.061 316.208H493.017ZM496.001 311.363C495.363 311.363 494.691 311.286 493.975 311.219C494.504 310.305 495.076 309.358 495.561 308.367L497.598 308.488C497.114 309.48 496.552 310.438 496.045 311.363H496.001ZM498.611 306.528L496.607 306.352C497.081 305.438 497.554 304.48 498.006 303.5L500.021 303.665C499.591 304.645 499.129 305.603 498.655 306.528H498.611ZM500.957 301.65L498.964 301.441C499.371 300.527 499.79 299.58 500.197 298.6C500.891 298.677 501.551 298.732 502.179 298.787C501.827 299.767 501.397 300.725 500.957 301.65ZM503.798 294.911L501.816 294.701C502.168 293.765 502.521 292.818 502.862 291.838L504.844 292.047C504.503 292.994 504.139 293.952 503.798 294.911ZM506.166 288.138L504.194 287.918C504.503 286.985 504.8 286.027 505.086 285.044L507.057 285.253C506.771 286.222 506.463 287.202 506.166 288.116V288.138ZM508.775 279.13C508.588 279.879 508.39 280.606 508.181 281.333L506.221 281.101C506.419 280.364 506.628 279.604 506.826 278.899C506.826 278.69 506.936 278.469 506.98 278.26L508.952 278.491C508.886 278.646 508.841 278.877 508.775 279.108V279.13ZM509.877 274.505L507.927 274.263C508.159 273.294 508.39 272.314 508.599 271.356L510.559 271.598C510.383 272.534 510.163 273.514 509.91 274.483L509.877 274.505ZM511.429 267.656L509.458 267.402C509.678 266.433 509.866 265.464 510.064 264.495L512.024 264.737C511.87 265.684 511.661 266.653 511.462 267.634L511.429 267.656ZM512.806 260.773L510.846 260.509C511.022 259.529 511.198 258.56 511.352 257.58L513.301 257.855C513.147 258.791 512.971 259.771 512.806 260.773ZM513.907 253.868L511.947 253.593C512.101 252.613 512.244 251.633 512.376 250.664L514.325 250.939C514.171 251.875 514.083 252.855 513.929 253.846L513.907 253.868ZM514.799 247.041L512.839 246.766C512.971 245.775 513.07 244.794 513.158 243.814L515.118 244.101C515.041 245.048 514.942 246.039 514.821 247.019L514.799 247.041ZM515.449 240.202C514.832 240.092 514.171 240.004 513.5 239.905C513.588 238.914 513.654 237.923 513.709 236.943L515.68 237.24C515.636 238.187 515.57 239.178 515.471 240.18L515.449 240.202ZM515.856 233.32L513.896 233.012C513.896 232.009 513.973 231.007 513.995 230.016C514.667 230.137 515.317 230.236 515.944 230.325C515.944 231.294 515.922 232.296 515.878 233.243L515.856 233.32ZM515.966 226.404L514.017 226.074C514.017 225.061 514.017 224.059 514.017 223.057L515.977 223.387C515.966 224.367 515.988 225.369 515.988 226.382L515.966 226.404ZM515.757 219.423L513.797 219.081C513.742 218.046 513.665 217.033 513.599 216.031L515.548 216.383C515.658 217.363 515.724 218.376 515.779 219.401L515.757 219.423ZM515.162 212.364L513.202 212C513.081 210.899 512.949 209.919 512.806 208.906L514.777 209.28C514.942 210.272 515.074 211.296 515.184 212.32L515.162 212.364ZM514.116 205.195L512.134 204.799C511.947 203.697 511.727 202.695 511.506 201.671L513.489 202.046C513.731 203.048 513.94 204.094 514.171 205.173L514.116 205.195ZM513.015 200.019L511.011 199.557C510.747 198.456 510.46 197.354 510.163 196.341L512.167 196.782C512.497 197.828 512.784 198.896 513.07 199.997L513.015 200.019ZM511.594 194.866C510.978 194.7 510.295 194.513 509.568 194.337C509.205 193.236 508.819 192.08 508.467 191.033L510.515 191.551C510.868 192.586 511.275 193.698 511.628 194.844L511.594 194.866ZM509.766 189.635L507.685 189.04C507.19 187.84 506.694 186.673 506.144 185.549L508.247 186.133C508.808 187.267 509.315 188.424 509.766 189.635ZM505.229 180.539C505.967 181.728 506.683 182.973 507.344 184.294L505.141 183.622C504.47 182.323 503.743 181.067 502.939 179.878C503.842 180.109 504.569 180.319 505.263 180.539H505.229ZM503.996 178.645C503.313 178.414 502.543 178.171 501.717 177.918C500.707 176.464 499.603 175.077 498.413 173.766L500.77 174.482C501.939 175.803 503.028 177.193 504.029 178.645H503.996ZM491.046 166.84C493.848 168.288 496.419 170.144 498.677 172.346C497.884 172.082 497.047 171.806 496.156 171.531C493.686 169.26 490.868 167.401 487.808 166.025L491.046 166.84ZM483.536 195.196C482.269 195.075 480.992 194.976 479.681 194.899C479.428 193.864 479.164 192.85 478.878 191.87C480.177 191.947 481.454 192.047 482.721 192.146C482.996 193.148 483.271 194.161 483.525 195.196H483.536ZM481.829 189.282C480.551 189.15 479.274 189.029 477.975 188.93C477.633 187.884 477.27 186.871 476.873 185.88C478.162 185.968 479.439 186.078 480.695 186.199C481.135 187.201 481.465 188.225 481.818 189.282H481.829ZM479.538 183.336C478.272 183.193 476.983 183.061 475.695 182.94C475.233 181.838 474.748 180.847 474.252 179.856C475.53 179.955 476.796 180.065 478.063 180.208C478.558 181.211 479.054 182.257 479.527 183.336H479.538ZM476.455 177.323C475.188 177.158 473.9 177.015 472.612 176.894C471.962 175.793 471.29 174.691 470.574 173.744C471.841 173.833 473.107 173.943 474.363 174.086C475.078 175.11 475.783 176.2 476.444 177.323H476.455ZM468.868 167.798C470.014 168.847 471.092 169.968 472.094 171.157C470.817 170.991 469.55 170.848 468.273 170.738C467.332 169.604 466.32 168.53 465.245 167.523C466.434 167.589 467.656 167.677 468.857 167.798H468.868ZM458.153 161.334C458.575 161.442 458.99 161.574 459.397 161.73C461.331 162.505 463.176 163.483 464.903 164.648C463.729 164.538 462.561 164.45 461.401 164.384C459.677 163.187 457.832 162.176 455.895 161.367C456.633 161.334 457.382 161.323 458.142 161.334H458.153Z" fill="#1A1A1A"/>
<path opacity="0.6" d="M446.524 159.462C448.262 159.565 449.971 159.96 451.579 160.629C475.486 170.32 487.544 212.067 471.632 273.966C461.622 312.904 443 325.722 443 325.722C466.852 334.609 482.093 331.129 482.093 331.129C482.093 331.129 500.737 318.256 510.725 279.317C526.626 217.418 514.579 175.672 490.671 165.992L489.57 165.573C489.57 165.573 486.267 164.329 480.992 162.931C472.656 160.728 459.408 158.074 446.535 159.319L446.524 159.462ZM480.353 197.828C481.653 197.883 482.93 197.971 484.196 198.059C484.417 199.05 484.615 200.063 484.791 201.076L480.937 200.812C480.761 199.821 480.562 198.808 480.353 197.839V197.828ZM481.939 207.739C481.829 206.726 481.697 205.735 481.564 204.754L485.441 205.074C485.584 206.065 485.716 207.067 485.826 208.08C484.538 207.915 483.238 207.816 481.939 207.717V207.739ZM482.236 235.445C482.324 234.454 482.39 233.474 482.445 232.494L486.355 233.001C486.3 233.97 486.234 234.961 486.146 235.952L482.236 235.445ZM485.793 239.938C485.705 240.918 485.606 241.887 485.485 242.878L481.575 242.35C481.697 241.359 481.796 240.379 481.884 239.41L485.793 239.938ZM482.633 228.53C482.633 227.527 482.699 226.536 482.721 225.545C483.976 225.699 485.298 225.854 486.619 226.03C486.619 227.01 486.619 228.001 486.542 229.003C485.22 228.838 483.921 228.673 482.644 228.53H482.633ZM482.732 221.592C482.732 220.579 482.732 219.588 482.677 218.597C483.965 218.729 485.265 218.883 486.586 219.037C486.586 220.017 486.586 221.008 486.641 222.032C485.342 221.878 484.031 221.724 482.743 221.592H482.732ZM482.512 214.654C482.512 213.641 482.39 212.639 482.313 211.659C483.602 211.78 484.901 211.901 486.212 212.044C486.289 213.036 486.355 214.038 486.421 215.051L482.512 214.654ZM452.107 325.877C451.006 325.568 449.905 325.238 448.726 324.874C449.398 324.291 450.235 323.509 451.193 322.529C452.382 322.881 453.528 323.212 454.662 323.52C453.605 324.5 452.768 325.293 452.118 325.832L452.107 325.877ZM456.633 321.472C455.532 321.163 454.31 320.833 453.12 320.481C453.792 319.732 454.486 318.906 455.224 317.992C456.435 318.344 457.635 318.653 458.78 318.961C458.01 319.809 457.316 320.646 456.644 321.406L456.633 321.472ZM460.498 316.803C459.309 316.505 458.109 316.197 456.886 315.856C457.492 315.052 458.109 314.193 458.747 313.279C459.981 313.609 461.192 313.917 462.381 314.204C461.743 315.063 461.115 315.922 460.509 316.736L460.498 316.803ZM463.868 311.99C462.679 311.704 461.456 311.396 460.212 311.065C460.763 310.228 461.313 309.358 461.864 308.433C463.119 308.753 464.353 309.061 465.553 309.336C465.002 310.195 464.441 311.087 463.879 311.924L463.868 311.99ZM466.896 307.024C465.685 306.749 464.452 306.451 463.196 306.121C463.681 305.262 464.176 304.37 464.661 303.434C465.927 303.764 467.172 304.051 468.383 304.337C467.92 305.229 467.392 306.121 466.896 307.024ZM469.583 302.013C468.35 301.749 467.117 301.452 465.839 301.143C466.28 300.251 466.709 299.348 467.15 298.401C468.427 298.721 469.682 299.018 470.905 299.293C470.464 300.196 470.024 301.11 469.583 301.98V302.013ZM471.973 296.937C470.74 296.661 469.484 296.364 468.218 296.056C468.603 295.164 469 294.239 469.385 293.292C470.651 293.611 471.918 293.908 473.162 294.173C472.766 295.087 472.325 296.012 471.973 296.904V296.937ZM474.616 290.517C473.338 290.252 472.072 289.977 470.795 289.691C471.147 288.777 471.477 287.852 471.819 286.883C473.085 287.169 474.363 287.444 475.629 287.698C475.299 288.623 474.946 289.559 474.616 290.506V290.517ZM476.895 283.909C475.607 283.667 474.319 283.425 473.052 283.161C473.349 282.236 473.636 281.289 473.933 280.319C475.199 280.584 476.488 280.815 477.776 281.057C477.49 282.026 477.204 282.973 476.895 283.898V283.909ZM479.45 275.1C479.263 275.838 479.076 276.553 478.878 277.302C477.556 277.071 476.268 276.851 475.001 276.608C475.188 275.937 475.376 275.265 475.541 274.571C475.618 274.296 475.695 274.01 475.761 273.734C477.027 273.966 478.316 274.197 479.626 274.417C479.582 274.582 479.516 274.824 479.45 275.089V275.1ZM480.551 270.486L476.664 269.858C476.906 268.889 477.127 267.92 477.336 266.962L481.234 267.59C481.058 268.481 480.827 269.473 480.584 270.442L480.551 270.486ZM482.093 263.647C480.75 263.46 479.45 263.251 478.184 263.064C478.404 262.083 478.591 261.114 478.778 260.156L482.688 260.729C482.534 261.665 482.335 262.634 482.126 263.603L482.093 263.647ZM483.437 256.765L479.527 256.192C479.714 255.212 479.88 254.243 480.034 253.274L483.932 253.835C483.811 254.771 483.646 255.741 483.47 256.721L483.437 256.765ZM484.538 249.827L480.628 249.287C480.772 248.307 480.904 247.327 481.047 246.358L484.956 246.898C484.89 247.823 484.747 248.803 484.604 249.761L484.538 249.827ZM480.375 330.744C479.681 330.744 478.955 330.744 478.173 330.645C479.337 329.761 480.44 328.801 481.476 327.771C482.258 327.771 482.996 327.771 483.679 327.771C482.663 328.814 481.581 329.793 480.441 330.7L480.375 330.744ZM485.54 325.877L483.392 325.799C484.196 324.952 485.055 323.982 485.947 322.881C486.729 322.881 487.445 322.881 488.15 322.881C487.258 324.027 486.388 324.996 485.54 325.877ZM489.603 321.042L487.5 320.954C488.194 320.051 488.91 319.082 489.636 318.036H491.762C491.046 319.137 490.341 320.117 489.647 321.042H489.603ZM493.017 316.208L490.947 316.109C491.563 315.191 492.18 314.222 492.797 313.202L494.867 313.268C494.294 314.303 493.667 315.283 493.061 316.208H493.017ZM496.001 311.363C495.363 311.363 494.691 311.286 493.975 311.219C494.504 310.305 495.076 309.358 495.561 308.367L497.598 308.488C497.114 309.48 496.552 310.438 496.045 311.363H496.001ZM498.611 306.528L496.607 306.352C497.081 305.438 497.554 304.48 498.006 303.5L500.021 303.665C499.591 304.645 499.129 305.603 498.655 306.528H498.611ZM500.957 301.65L498.964 301.441C499.371 300.527 499.79 299.58 500.197 298.6C500.891 298.677 501.551 298.732 502.179 298.787C501.827 299.767 501.397 300.725 500.957 301.65ZM503.798 294.911L501.816 294.701C502.168 293.765 502.521 292.818 502.862 291.838L504.844 292.047C504.503 292.994 504.139 293.952 503.798 294.911ZM506.166 288.138L504.194 287.918C504.503 286.985 504.8 286.027 505.086 285.044L507.057 285.253C506.771 286.222 506.463 287.202 506.166 288.116V288.138ZM508.775 279.13C508.588 279.879 508.39 280.606 508.181 281.333L506.221 281.101C506.419 280.364 506.628 279.604 506.826 278.899C506.826 278.69 506.936 278.469 506.98 278.26L508.952 278.491C508.886 278.646 508.841 278.877 508.775 279.108V279.13ZM509.877 274.505L507.927 274.263C508.159 273.294 508.39 272.314 508.599 271.356L510.559 271.598C510.383 272.534 510.163 273.514 509.91 274.483L509.877 274.505ZM511.429 267.656L509.458 267.402C509.678 266.433 509.866 265.464 510.064 264.495L512.024 264.737C511.87 265.684 511.661 266.653 511.462 267.634L511.429 267.656ZM512.806 260.773L510.846 260.509C511.022 259.529 511.198 258.56 511.352 257.58L513.301 257.855C513.147 258.791 512.971 259.771 512.806 260.773ZM513.907 253.868L511.947 253.593C512.101 252.613 512.244 251.633 512.376 250.664L514.325 250.939C514.171 251.875 514.083 252.855 513.929 253.846L513.907 253.868ZM514.799 247.041L512.839 246.766C512.971 245.775 513.07 244.794 513.158 243.814L515.118 244.101C515.041 245.048 514.942 246.039 514.821 247.019L514.799 247.041ZM515.449 240.202C514.832 240.092 514.171 240.004 513.5 239.905C513.588 238.914 513.654 237.923 513.709 236.943L515.68 237.24C515.636 238.187 515.57 239.178 515.471 240.18L515.449 240.202ZM515.856 233.32L513.896 233.012C513.896 232.009 513.973 231.007 513.995 230.016C514.667 230.137 515.317 230.236 515.944 230.325C515.944 231.294 515.922 232.296 515.878 233.243L515.856 233.32ZM515.966 226.404L514.017 226.074C514.017 225.061 514.017 224.059 514.017 223.057L515.977 223.387C515.966 224.367 515.988 225.369 515.988 226.382L515.966 226.404ZM515.757 219.423L513.797 219.081C513.742 218.046 513.665 217.033 513.599 216.031L515.548 216.383C515.658 217.363 515.724 218.376 515.779 219.401L515.757 219.423ZM515.162 212.364L513.202 212C513.081 210.899 512.949 209.919 512.806 208.906L514.777 209.28C514.942 210.272 515.074 211.296 515.184 212.32L515.162 212.364ZM514.116 205.195L512.134 204.799C511.947 203.697 511.727 202.695 511.506 201.671L513.489 202.046C513.731 203.048 513.94 204.094 514.171 205.173L514.116 205.195ZM513.015 200.019L511.011 199.557C510.747 198.456 510.46 197.354 510.163 196.341L512.167 196.782C512.497 197.828 512.784 198.896 513.07 199.997L513.015 200.019ZM511.594 194.866C510.978 194.7 510.295 194.513 509.568 194.337C509.205 193.236 508.819 192.08 508.467 191.033L510.515 191.551C510.868 192.586 511.275 193.698 511.628 194.844L511.594 194.866ZM509.766 189.635L507.685 189.04C507.19 187.84 506.694 186.673 506.144 185.549L508.247 186.133C508.808 187.267 509.315 188.424 509.766 189.635ZM505.229 180.539C505.967 181.728 506.683 182.973 507.344 184.294L505.141 183.622C504.47 182.323 503.743 181.067 502.939 179.878C503.842 180.109 504.569 180.319 505.263 180.539H505.229ZM503.996 178.645C503.313 178.414 502.543 178.171 501.717 177.918C500.707 176.464 499.603 175.077 498.413 173.766L500.77 174.482C501.939 175.803 503.028 177.193 504.029 178.645H503.996ZM491.046 166.84C493.848 168.288 496.419 170.144 498.677 172.346C497.884 172.082 497.047 171.806 496.156 171.531C493.686 169.26 490.868 167.401 487.808 166.025L491.046 166.84ZM483.536 195.196C482.269 195.075 480.992 194.976 479.681 194.899C479.428 193.864 479.164 192.85 478.878 191.87C480.177 191.947 481.454 192.047 482.721 192.146C482.996 193.148 483.271 194.161 483.525 195.196H483.536ZM481.829 189.282C480.551 189.15 479.274 189.029 477.975 188.93C477.633 187.884 477.27 186.871 476.873 185.88C478.162 185.968 479.439 186.078 480.695 186.199C481.135 187.201 481.465 188.225 481.818 189.282H481.829ZM479.538 183.336C478.272 183.193 476.983 183.061 475.695 182.94C475.233 181.838 474.748 180.847 474.252 179.856C475.53 179.955 476.796 180.065 478.063 180.208C478.558 181.211 479.054 182.257 479.527 183.336H479.538ZM476.455 177.323C475.188 177.158 473.9 177.015 472.612 176.894C471.962 175.793 471.29 174.691 470.574 173.744C471.841 173.833 473.107 173.943 474.363 174.086C475.078 175.11 475.783 176.2 476.444 177.323H476.455ZM468.868 167.798C470.014 168.847 471.092 169.968 472.094 171.157C470.817 170.991 469.55 170.848 468.273 170.738C467.332 169.604 466.32 168.53 465.245 167.523C466.434 167.589 467.656 167.677 468.857 167.798H468.868ZM458.153 161.334C458.575 161.442 458.99 161.574 459.397 161.73C461.331 162.505 463.176 163.483 464.903 164.648C463.729 164.538 462.561 164.45 461.401 164.384C459.677 163.187 457.832 162.176 455.895 161.367C456.633 161.334 457.382 161.323 458.142 161.334H458.153Z" fill="#BD8C34"/>
<g opacity="0.3">
<path d="M478.426 285.649C476.284 291.907 473.708 298.008 470.717 303.907C478.184 305.512 485.736 306.693 493.336 307.442C496.428 301.775 499.093 295.886 501.309 289.823C495.175 289.019 487.643 287.741 478.426 285.649Z" fill="black"/>
<path d="M502.642 285.958C504.774 279.626 506.539 273.177 507.927 266.643C501.32 265.651 493.535 264.275 484.714 262.381C483.384 268.964 481.7 275.47 479.67 281.872C487.254 283.618 494.921 284.981 502.642 285.958Z" fill="black"/>
<path d="M487.599 244.728C487.005 249.552 486.296 254.144 485.474 258.504C494.284 260.388 502.08 261.808 508.721 262.744C509.69 257.8 510.516 252.569 511.198 246.997C511.386 245.433 511.551 243.913 511.694 242.405C503.424 240.676 495.319 239.332 488.282 238.319C488.095 240.412 487.875 242.537 487.599 244.728Z" fill="black"/>
<path d="M468.746 307.552C465.359 313.733 461.324 319.536 456.71 324.863C463.77 326.384 470.905 327.534 478.085 328.31C483.104 323.154 487.488 317.416 491.145 311.219C483.619 310.396 476.142 309.172 468.746 307.552Z" fill="black"/>
<path d="M482.599 186.992C490.231 188.203 498.699 189.756 507.112 191.716C503.981 183.05 498.58 175.383 491.475 169.516C483.634 167.93 476.058 166.686 469.385 165.75C475.106 171.921 479.592 179.132 482.599 186.992Z" fill="black"/>
<path d="M484.108 191.21C486.183 197.653 487.571 204.297 488.249 211.031C495.693 212.199 503.952 213.707 512.178 215.59C511.719 208.988 510.541 202.456 508.665 196.11C500.307 194.084 491.839 192.498 484.108 191.21Z" fill="black"/>
<path d="M488.601 215.128C489.042 221.537 489.042 227.968 488.601 234.377C495.638 235.39 503.754 236.734 512.057 238.451C512.566 232.225 512.695 225.973 512.443 219.731C504.261 217.826 496.057 216.317 488.601 215.128Z" fill="black"/>
</g>
<path d="M361.723 270.726C393.521 238.928 393.521 187.374 361.723 155.577C329.926 123.779 278.372 123.779 246.574 155.577C214.777 187.374 214.777 238.928 246.574 270.726C278.372 302.523 329.926 302.523 361.723 270.726Z" fill="#BD8C34" stroke="#5F430F" stroke-miterlimit="10"/>
<path d="M363.425 270.724C395.223 238.926 395.223 187.372 363.425 155.575C331.628 123.777 280.074 123.777 248.276 155.575C216.479 187.372 216.479 238.926 248.276 270.724C280.074 302.521 331.628 302.521 363.425 270.724Z" fill="#845500" stroke="#5F430F" stroke-miterlimit="10"/>
<path d="M315.065 272.921C348.075 272.921 374.834 246.161 374.834 213.152C374.834 180.142 348.075 153.382 315.065 153.382C282.055 153.382 255.296 180.142 255.296 213.152C255.296 246.161 282.055 272.921 315.065 272.921Z" fill="#44300D"/>
<path d="M312.811 131.729C296.706 131.727 280.963 136.501 267.572 145.447C254.181 154.393 243.744 167.108 237.579 181.986C231.415 196.864 229.802 213.236 232.942 229.031C236.083 244.826 243.837 259.335 255.224 270.723C266.611 282.111 281.119 289.867 296.913 293.009C312.708 296.152 329.08 294.54 343.959 288.377C358.837 282.215 371.554 271.779 380.501 258.389C389.449 244.999 394.224 229.256 394.224 213.152C394.224 191.559 385.647 170.85 370.379 155.58C355.112 140.311 334.404 131.732 312.811 131.729ZM346.527 172.045C349.811 170.148 353.583 169.268 357.368 169.515C361.152 169.763 364.778 171.127 367.786 173.436C370.795 175.744 373.052 178.893 374.27 182.484C375.489 186.075 375.616 189.947 374.634 193.61C373.652 197.273 371.606 200.562 368.754 203.062C365.903 205.562 362.374 207.16 358.614 207.654C354.854 208.148 351.032 207.516 347.631 205.838C344.23 204.16 341.404 201.51 339.509 198.225C338.25 196.046 337.434 193.639 337.105 191.144C336.777 188.648 336.943 186.113 337.595 183.681C338.246 181.25 339.371 178.971 340.903 176.975C342.436 174.978 344.347 173.303 346.527 172.045ZM279.085 254.259C275.802 256.154 272.029 257.034 268.246 256.786C264.462 256.538 260.837 255.173 257.829 252.865C254.821 250.556 252.565 247.408 251.346 243.817C250.127 240.227 250 236.355 250.982 232.693C251.963 229.03 254.009 225.741 256.859 223.241C259.71 220.741 263.238 219.142 266.998 218.647C270.757 218.153 274.579 218.783 277.979 220.461C281.38 222.138 284.207 224.785 286.103 228.069C287.362 230.25 288.179 232.657 288.508 235.153C288.836 237.649 288.67 240.185 288.018 242.617C287.367 245.049 286.242 247.329 284.71 249.326C283.177 251.324 281.266 253 279.085 254.259ZM286.53 197.48C284.635 200.765 281.807 203.413 278.406 205.091C275.005 206.768 271.183 207.4 267.423 206.904C263.663 206.409 260.134 204.81 257.283 202.309C254.432 199.808 252.387 196.518 251.406 192.855C250.425 189.191 250.553 185.319 251.773 181.728C252.994 178.138 255.251 174.989 258.261 172.682C261.271 170.375 264.897 169.012 268.682 168.766C272.466 168.52 276.238 169.401 279.522 171.3C281.702 172.557 283.613 174.233 285.145 176.229C286.678 178.226 287.801 180.506 288.452 182.937C289.103 185.369 289.269 187.904 288.939 190.4C288.609 192.895 287.791 195.301 286.53 197.48ZM312.374 282.075C308.583 282.075 304.876 280.951 301.723 278.844C298.57 276.738 296.113 273.743 294.662 270.24C293.211 266.737 292.831 262.882 293.571 259.163C294.311 255.444 296.137 252.028 298.818 249.347C301.499 246.666 304.915 244.84 308.634 244.1C312.353 243.36 316.208 243.74 319.711 245.191C323.214 246.642 326.208 249.1 328.315 252.252C330.422 255.405 331.546 259.112 331.546 262.903C331.546 267.988 329.526 272.865 325.931 276.46C322.335 280.055 317.459 282.075 312.374 282.075ZM308.984 206.361C308.149 206.847 307.189 207.075 306.226 207.015C305.262 206.955 304.337 206.611 303.569 206.026C302.801 205.441 302.224 204.641 301.91 203.728C301.597 202.815 301.561 201.829 301.808 200.895C302.054 199.962 302.573 199.122 303.296 198.483C304.02 197.844 304.917 197.434 305.874 197.305C306.831 197.176 307.805 197.333 308.672 197.758C309.54 198.182 310.262 198.854 310.747 199.689C311.07 200.243 311.281 200.855 311.368 201.49C311.454 202.125 311.414 202.771 311.25 203.391C311.087 204.011 310.802 204.592 310.413 205.102C310.024 205.612 309.538 206.04 308.984 206.361ZM310.656 226.515C310.177 227.353 309.46 228.03 308.596 228.46C307.732 228.891 306.76 229.056 305.803 228.934C304.845 228.812 303.945 228.409 303.217 227.776C302.488 227.142 301.963 226.307 301.709 225.376C301.455 224.445 301.483 223.459 301.789 222.544C302.095 221.628 302.666 220.824 303.428 220.233C304.191 219.641 305.113 219.29 306.076 219.222C307.038 219.154 308 219.373 308.838 219.851C309.395 220.169 309.884 220.594 310.277 221.101C310.67 221.608 310.959 222.187 311.128 222.806C311.297 223.425 311.342 224.071 311.261 224.707C311.18 225.344 310.975 225.958 310.656 226.515ZM305.02 213.07C305.024 214.035 304.741 214.98 304.208 215.785C303.674 216.59 302.914 217.218 302.024 217.591C301.133 217.964 300.152 218.064 299.204 217.879C298.257 217.695 297.385 217.233 296.7 216.553C296.015 215.873 295.546 215.004 295.355 214.058C295.163 213.112 295.256 212.13 295.622 211.237C295.988 210.343 296.611 209.579 297.412 209.039C298.212 208.5 299.155 208.21 300.12 208.207C301.414 208.204 302.657 208.715 303.575 209.626C304.493 210.538 305.013 211.776 305.02 213.07ZM323.437 204.634C322.958 205.472 322.241 206.149 321.377 206.58C320.513 207.01 319.541 207.175 318.584 207.053C317.626 206.931 316.726 206.528 315.998 205.895C315.269 205.262 314.745 204.427 314.49 203.496C314.236 202.564 314.264 201.579 314.57 200.663C314.876 199.748 315.447 198.943 316.21 198.352C316.973 197.761 317.894 197.409 318.857 197.341C319.819 197.273 320.781 197.492 321.619 197.971C322.743 198.615 323.565 199.678 323.906 200.927C324.246 202.176 324.078 203.509 323.437 204.634ZM325.465 208.334C326.43 208.33 327.375 208.613 328.18 209.146C328.984 209.68 329.613 210.44 329.986 211.331C330.358 212.221 330.459 213.202 330.274 214.15C330.089 215.098 329.627 215.969 328.947 216.654C328.267 217.339 327.399 217.808 326.453 218C325.507 218.191 324.525 218.098 323.631 217.732C322.738 217.366 321.973 216.743 321.434 215.943C320.895 215.142 320.605 214.199 320.601 213.234C320.599 212.593 320.723 211.957 320.966 211.364C321.209 210.771 321.566 210.231 322.018 209.776C322.47 209.321 323.006 208.96 323.598 208.712C324.189 208.465 324.823 208.336 325.465 208.334ZM316.629 219.933C317.464 219.444 318.425 219.214 319.391 219.271C320.357 219.329 321.285 219.672 322.056 220.257C322.827 220.841 323.407 221.642 323.723 222.557C324.039 223.471 324.076 224.459 323.831 225.395C323.585 226.331 323.067 227.174 322.342 227.815C321.618 228.457 320.719 228.869 319.76 228.999C318.801 229.13 317.825 228.973 316.955 228.548C316.085 228.124 315.361 227.451 314.874 226.615C314.222 225.496 314.041 224.164 314.37 222.911C314.699 221.659 315.511 220.588 316.629 219.933ZM313.238 182.535C309.446 182.535 305.739 181.411 302.587 179.304C299.434 177.198 296.977 174.204 295.526 170.7C294.075 167.197 293.695 163.342 294.435 159.623C295.174 155.905 297 152.488 299.682 149.807C302.363 147.126 305.779 145.3 309.498 144.56C313.217 143.821 317.071 144.2 320.575 145.651C324.078 147.102 327.072 149.56 329.179 152.712C331.285 155.865 332.41 159.572 332.41 163.364C332.41 168.448 330.39 173.325 326.794 176.92C323.199 180.515 318.323 182.535 313.238 182.535ZM372.325 247.986C370.43 251.27 367.602 253.918 364.202 255.595C360.801 257.272 356.979 257.903 353.22 257.408C349.461 256.913 345.933 255.314 343.082 252.814C340.231 250.314 338.186 247.025 337.204 243.362C336.223 239.7 336.349 235.829 337.568 232.238C338.787 228.647 341.043 225.499 344.051 223.191C347.059 220.882 350.684 219.518 354.468 219.27C358.252 219.022 362.024 219.901 365.308 221.797C369.705 224.345 372.911 228.535 374.22 233.446C375.529 238.357 374.835 243.587 372.289 247.986H372.325Z" fill="#BD8C34" stroke="#5F430F" stroke-miterlimit="10"/>
<path d="M315.065 131.729C298.961 131.729 283.219 136.504 269.829 145.451C256.439 154.398 246.003 167.115 239.84 181.993C233.678 196.871 232.065 213.242 235.207 229.037C238.349 244.831 246.103 259.339 257.491 270.726C268.878 282.113 283.386 289.868 299.18 293.01C314.975 296.152 331.346 294.539 346.224 288.376C361.102 282.214 373.819 271.778 382.765 258.388C391.712 244.998 396.488 229.256 396.488 213.152C396.488 191.557 387.909 170.847 372.64 155.577C357.37 140.308 336.66 131.729 315.065 131.729ZM348.79 172.045C352.073 170.151 355.843 169.273 359.625 169.522C363.406 169.77 367.029 171.135 370.035 173.442C373.042 175.75 375.296 178.897 376.514 182.486C377.731 186.075 377.857 189.944 376.876 193.604C375.895 197.265 373.85 200.552 371.001 203.051C368.152 205.549 364.625 207.147 360.868 207.642C357.111 208.136 353.291 207.506 349.892 205.829C346.493 204.153 343.668 201.507 341.773 198.225C340.513 196.046 339.695 193.64 339.366 191.144C339.037 188.648 339.203 186.112 339.854 183.68C340.506 181.249 341.631 178.97 343.164 176.973C344.698 174.977 346.609 173.302 348.79 172.045ZM281.349 254.259C278.066 256.156 274.294 257.037 270.51 256.79C266.726 256.543 263.1 255.18 260.091 252.873C257.082 250.566 254.825 247.418 253.604 243.827C252.384 240.237 252.256 236.366 253.237 232.703C254.217 229.04 256.262 225.75 259.112 223.249C261.962 220.748 265.49 219.148 269.249 218.652C273.008 218.156 276.83 218.786 280.232 220.462C283.633 222.138 286.461 224.786 288.357 228.069C290.901 232.472 291.591 237.704 290.277 242.615C288.962 247.527 285.751 251.715 281.349 254.259ZM288.794 197.48C286.899 200.765 284.072 203.414 280.672 205.093C277.271 206.771 273.449 207.403 269.689 206.909C265.929 206.415 262.4 204.817 259.549 202.317C256.697 199.817 254.651 196.528 253.669 192.865C252.687 189.202 252.814 185.33 254.032 181.739C255.251 178.148 257.508 174.999 260.517 172.69C263.525 170.382 267.151 169.018 270.935 168.77C274.72 168.522 278.492 169.403 281.776 171.3C283.956 172.558 285.867 174.233 287.4 176.229C288.932 178.226 290.057 180.505 290.708 182.936C291.36 185.367 291.526 187.903 291.198 190.398C290.869 192.894 290.052 195.3 288.794 197.48ZM314.638 282.075C310.846 282.075 307.139 280.951 303.987 278.844C300.834 276.738 298.377 273.743 296.925 270.24C295.474 266.737 295.095 262.882 295.835 259.163C296.574 255.444 298.4 252.028 301.081 249.347C303.763 246.666 307.179 244.84 310.898 244.1C314.617 243.36 318.471 243.74 321.974 245.191C325.478 246.642 328.472 249.1 330.578 252.252C332.685 255.405 333.809 259.112 333.809 262.903C333.809 267.988 331.79 272.865 328.194 276.46C324.599 280.055 319.722 282.075 314.638 282.075ZM311.229 206.361C310.394 206.847 309.435 207.075 308.471 207.015C307.507 206.955 306.583 206.611 305.815 206.026C305.046 205.441 304.469 204.641 304.155 203.728C303.842 202.815 303.806 201.829 304.053 200.895C304.3 199.962 304.818 199.122 305.542 198.483C306.265 197.844 307.163 197.434 308.12 197.305C309.076 197.176 310.05 197.333 310.918 197.758C311.785 198.182 312.507 198.854 312.992 199.689C313.316 200.243 313.527 200.855 313.613 201.49C313.699 202.125 313.659 202.771 313.496 203.391C313.332 204.011 313.047 204.592 312.658 205.102C312.269 205.612 311.784 206.04 311.229 206.361ZM312.901 226.515C312.422 227.353 311.705 228.03 310.841 228.46C309.978 228.891 309.005 229.056 308.048 228.934C307.09 228.812 306.19 228.409 305.462 227.776C304.733 227.142 304.209 226.307 303.955 225.376C303.701 224.445 303.728 223.459 304.034 222.544C304.34 221.628 304.911 220.824 305.674 220.233C306.437 219.641 307.358 219.29 308.321 219.222C309.284 219.154 310.245 219.373 311.083 219.851C311.641 220.169 312.131 220.593 312.525 221.099C312.919 221.606 313.209 222.185 313.379 222.804C313.548 223.423 313.594 224.069 313.514 224.706C313.434 225.343 313.229 225.957 312.911 226.515H312.901ZM307.265 213.07C307.269 214.035 306.986 214.98 306.453 215.785C305.919 216.59 305.159 217.218 304.269 217.591C303.378 217.964 302.397 218.064 301.449 217.879C300.502 217.695 299.63 217.233 298.945 216.553C298.26 215.873 297.792 215.004 297.6 214.058C297.408 213.112 297.501 212.13 297.867 211.237C298.233 210.343 298.856 209.579 299.657 209.039C300.458 208.5 301.4 208.21 302.366 208.207C303.008 208.203 303.644 208.326 304.238 208.569C304.832 208.811 305.373 209.169 305.829 209.62C306.285 210.072 306.647 210.609 306.895 211.201C307.143 211.793 307.272 212.428 307.275 213.07H307.265ZM325.683 204.634C325.203 205.472 324.487 206.149 323.623 206.58C322.759 207.01 321.786 207.175 320.829 207.053C319.871 206.931 318.971 206.528 318.243 205.895C317.514 205.262 316.99 204.427 316.736 203.496C316.482 202.564 316.509 201.579 316.815 200.663C317.121 199.748 317.692 198.943 318.455 198.352C319.218 197.761 320.139 197.409 321.102 197.341C322.065 197.273 323.026 197.492 323.865 197.971C324.989 198.613 325.814 199.675 326.156 200.925C326.499 202.174 326.332 203.508 325.692 204.634H325.683ZM327.71 208.334C328.675 208.33 329.62 208.613 330.425 209.146C331.23 209.68 331.858 210.44 332.231 211.331C332.604 212.221 332.704 213.202 332.519 214.15C332.334 215.098 331.873 215.969 331.192 216.654C330.512 217.339 329.644 217.808 328.698 218C327.752 218.191 326.77 218.098 325.877 217.732C324.983 217.366 324.219 216.743 323.679 215.943C323.14 215.142 322.85 214.199 322.846 213.234C322.843 212.591 322.966 211.955 323.209 211.361C323.453 210.766 323.811 210.226 324.264 209.771C324.717 209.315 325.255 208.954 325.848 208.707C326.441 208.461 327.077 208.334 327.719 208.334H327.71ZM318.883 219.933C319.717 219.448 320.677 219.222 321.64 219.282C322.603 219.342 323.527 219.687 324.295 220.272C325.062 220.857 325.639 221.656 325.952 222.569C326.266 223.481 326.302 224.467 326.055 225.4C325.809 226.333 325.292 227.172 324.569 227.811C323.846 228.45 322.949 228.861 321.993 228.991C321.037 229.121 320.063 228.965 319.196 228.542C318.329 228.119 317.606 227.448 317.119 226.615C316.796 226.06 316.586 225.447 316.5 224.81C316.414 224.174 316.455 223.527 316.619 222.906C316.784 222.285 317.07 221.703 317.46 221.193C317.85 220.683 318.336 220.255 318.892 219.933H318.883ZM315.492 182.535C311.7 182.535 307.994 181.411 304.841 179.304C301.688 177.198 299.231 174.204 297.78 170.7C296.329 167.197 295.949 163.342 296.689 159.623C297.429 155.905 299.255 152.488 301.936 149.807C304.617 147.126 308.033 145.3 311.752 144.56C315.471 143.821 319.326 144.2 322.829 145.651C326.332 147.102 329.326 149.56 331.433 152.712C333.54 155.865 334.664 159.572 334.664 163.364C334.665 165.882 334.17 168.375 333.207 170.702C332.244 173.028 330.832 175.142 329.051 176.923C327.271 178.703 325.157 180.115 322.83 181.078C320.504 182.041 318.01 182.537 315.492 182.535ZM374.58 247.986C372.684 251.27 369.857 253.918 366.456 255.595C363.055 257.272 359.234 257.903 355.474 257.408C351.715 256.913 348.187 255.314 345.336 252.814C342.485 250.314 340.44 247.025 339.458 243.362C338.477 239.7 338.604 235.829 339.822 232.238C341.041 228.647 343.297 225.499 346.305 223.191C349.314 220.882 352.939 219.518 356.722 219.27C360.506 219.022 364.278 219.901 367.562 221.797C371.959 224.345 375.165 228.535 376.474 233.446C377.783 238.357 377.089 243.587 374.543 247.986H374.58Z" fill="#BD8C34" stroke="#5F430F" stroke-miterlimit="10"/>
<path d="M388 152H444.836L466.75 246.688L429.719 278.445L388 152Z" fill="#832613"/>
<path d="M21.25 101.25H73.25L117.25 170L161.25 101.25H214.5V278H157.25V182L116 251.875H103.875L61.25 182V278H21.25V101.25Z" fill="#832613"/>
<path d="M750.375 101.25H806.375V242H866.375V278H750.375V101.25Z" fill="#F2EEE8"/>
<path d="M544.381 151.555H595.006V278H544.381V151.555ZM569.811 125.539C565.358 125.539 561.178 125.07 557.272 124.133C553.366 123.195 549.967 121.906 547.077 120.266C544.264 118.625 541.998 116.633 540.28 114.289C538.639 111.945 537.819 109.367 537.819 106.555C537.819 103.43 538.639 100.695 540.28 98.3516C541.92 95.9297 544.186 93.9375 547.077 92.375C549.967 90.8125 553.366 89.6406 557.272 88.8594C561.178 88.0781 565.397 87.6875 569.928 87.6875C574.459 87.6875 578.678 88.0781 582.584 88.8594C586.569 89.6406 590.006 90.8125 592.897 92.375C595.787 93.9375 598.053 95.9297 599.694 98.3516C601.334 100.695 602.155 103.43 602.155 106.555C602.155 109.367 601.295 111.945 599.577 114.289C597.936 116.633 595.67 118.625 592.78 120.266C589.889 121.906 586.452 123.195 582.467 124.133C578.561 125.07 574.342 125.539 569.811 125.539ZM730.963 272.961C723.619 275.383 715.689 277.375 707.173 278.938C698.658 280.578 689.791 281.398 680.572 281.398C670.494 281.398 660.884 280.07 651.744 277.414C642.603 274.758 634.556 270.617 627.603 264.992C620.65 259.367 615.103 252.258 610.963 243.664C606.9 234.992 604.869 224.68 604.869 212.727C604.869 205.93 605.923 199.641 608.033 193.859C610.142 188 612.994 182.688 616.588 177.922C620.259 173.156 624.517 168.938 629.361 165.266C634.283 161.594 639.517 158.508 645.064 156.008C650.689 153.508 656.47 151.633 662.408 150.383C668.345 149.055 674.166 148.391 679.869 148.391C688.853 148.391 696.783 149.406 703.658 151.438C710.533 153.391 716.236 156.047 720.767 159.406C725.377 162.766 728.853 166.672 731.197 171.125C733.541 175.578 734.713 180.305 734.713 185.305C734.713 191.398 733.658 196.594 731.548 200.891C729.517 205.188 726.744 208.82 723.228 211.789C719.791 214.68 715.767 216.984 711.158 218.703C706.627 220.344 701.822 221.633 696.744 222.57C691.666 223.43 686.47 223.977 681.158 224.211C675.923 224.445 670.923 224.562 666.158 224.562C664.517 224.562 662.916 224.562 661.353 224.562C659.869 224.484 658.384 224.445 656.9 224.445C657.525 228.898 658.736 232.648 660.533 235.695C662.408 238.742 664.713 241.242 667.447 243.195C670.259 245.07 673.463 246.438 677.056 247.297C680.728 248.078 684.634 248.469 688.775 248.469C691.9 248.469 695.22 248.234 698.736 247.766C702.33 247.297 705.923 246.672 709.517 245.891C713.189 245.031 716.822 244.094 720.416 243.078C724.088 241.984 727.603 240.852 730.963 239.68V272.961ZM655.845 206.398C657.72 206.32 660.103 206.203 662.994 206.047C665.963 205.891 669.088 205.617 672.369 205.227C675.65 204.836 678.931 204.289 682.213 203.586C685.494 202.883 688.463 201.984 691.119 200.891C693.775 199.797 695.923 198.43 697.564 196.789C699.205 195.148 700.025 193.156 700.025 190.812C700.025 186.828 698.423 183.664 695.22 181.32C692.095 178.898 687.72 177.688 682.095 177.688C679.517 177.688 676.744 178.078 673.775 178.859C670.806 179.562 668.033 180.969 665.455 183.078C662.877 185.188 660.689 188.117 658.892 191.867C657.095 195.617 656.08 200.461 655.845 206.398Z" fill="#832613"/>
<path d="M918.983 281.398C913.983 281.398 909.178 280.695 904.569 279.289C900.038 277.883 896.014 275.734 892.498 272.844C888.983 269.953 886.17 266.32 884.061 261.945C882.03 257.492 881.014 252.258 881.014 246.242C881.014 240.461 881.952 235.461 883.827 231.242C885.702 226.945 888.202 223.273 891.327 220.227C894.53 217.18 898.241 214.68 902.459 212.727C906.756 210.695 911.288 209.133 916.053 208.039C920.819 206.867 925.702 206.086 930.702 205.695C935.78 205.227 940.702 204.992 945.467 204.992C948.748 204.992 951.913 205.07 954.959 205.227C958.006 205.383 960.858 205.578 963.514 205.812C963.358 200.891 962.42 196.828 960.702 193.625C958.983 190.344 956.717 187.766 953.905 185.891C951.092 183.938 947.811 182.57 944.061 181.789C940.311 181.008 936.366 180.617 932.225 180.617C928.397 180.617 924.452 180.891 920.389 181.438C916.405 181.906 912.498 182.531 908.67 183.312C904.842 184.016 901.17 184.797 897.655 185.656C894.217 186.516 891.17 187.297 888.514 188V155.188C892.342 154.328 896.444 153.508 900.819 152.727C905.272 151.867 909.881 151.125 914.647 150.5C919.413 149.875 924.256 149.367 929.178 148.977C934.178 148.586 939.1 148.391 943.944 148.391C949.959 148.391 955.858 148.781 961.639 149.562C967.498 150.266 973.006 151.477 978.163 153.195C983.397 154.914 988.202 157.219 992.577 160.109C997.03 163 1000.82 166.594 1003.94 170.891C1007.15 175.109 1009.65 180.109 1011.44 185.891C1013.24 191.672 1014.14 198.352 1014.14 205.93V278H965.858V257.023C963.983 260.852 961.366 264.289 958.006 267.336C954.647 270.305 950.858 272.844 946.639 274.953C942.42 277.062 937.928 278.664 933.163 279.758C928.397 280.852 923.67 281.398 918.983 281.398ZM938.788 253.859C940.975 253.859 943.475 253.273 946.288 252.102C949.178 250.852 951.873 248.977 954.373 246.477C956.952 243.977 959.1 240.812 960.819 236.984C962.616 233.156 963.514 228.586 963.514 223.273H959.647C955.897 223.273 952.03 223.664 948.045 224.445C944.139 225.227 940.545 226.398 937.264 227.961C933.983 229.523 931.288 231.438 929.178 233.703C927.069 235.969 926.014 238.586 926.014 241.555C926.014 243.898 926.405 245.852 927.186 247.414C927.967 248.977 928.944 250.266 930.116 251.281C931.366 252.219 932.733 252.883 934.217 253.273C935.78 253.664 937.303 253.859 938.788 253.859ZM1121.74 281.398C1117.52 281.398 1113.34 280.852 1109.2 279.758C1105.06 278.664 1101.11 277.102 1097.36 275.07C1093.69 272.961 1090.33 270.422 1087.28 267.453C1084.24 264.406 1081.66 260.969 1079.55 257.141V278H1028.92V98H1079.55V168.898C1081.35 165.93 1083.81 163.195 1086.93 160.695C1090.06 158.195 1093.57 156.047 1097.48 154.25C1101.38 152.375 1105.56 150.93 1110.02 149.914C1114.47 148.898 1118.92 148.391 1123.38 148.391C1130.41 148.391 1137.24 149.562 1143.88 151.906C1150.53 154.25 1156.42 158.078 1161.58 163.391C1166.74 168.625 1170.88 175.5 1174 184.016C1177.2 192.453 1178.81 202.766 1178.81 214.953C1178.81 226.516 1177.24 236.477 1174.12 244.836C1171.07 253.195 1166.93 260.109 1161.7 265.578C1156.54 270.969 1150.49 274.953 1143.53 277.531C1136.66 280.109 1129.39 281.398 1121.74 281.398ZM1128.18 215.07C1128.18 208.664 1127.48 203.312 1126.07 199.016C1124.67 194.641 1122.79 191.125 1120.45 188.469C1118.1 185.812 1115.45 183.938 1112.48 182.844C1109.59 181.672 1106.62 181.086 1103.57 181.086C1100.53 181.086 1097.56 181.672 1094.67 182.844C1091.85 183.938 1089.31 185.812 1087.05 188.469C1084.78 191.125 1082.95 194.641 1081.54 199.016C1080.21 203.312 1079.55 208.625 1079.55 214.953C1079.55 221.359 1080.21 226.75 1081.54 231.125C1082.95 235.422 1084.78 238.898 1087.05 241.555C1089.31 244.133 1091.89 246.008 1094.78 247.18C1097.67 248.273 1100.64 248.82 1103.69 248.82C1106.74 248.82 1109.7 248.273 1112.6 247.18C1115.56 246.008 1118.18 244.133 1120.45 241.555C1122.79 238.898 1124.67 235.422 1126.07 231.125C1127.48 226.828 1128.18 221.477 1128.18 215.07Z" fill="#F2EEE8"/>
</svg>
